<?xml version="1.0" encoding="utf-8"?>
<!-- Generator: Adobe Illustrator 25.2.1, SVG Export Plug-In . SVG Version: 6.00 Build 0)  -->
<svg version="1.1" id="图层_1" xmlns="http://www.w3.org/2000/svg" xmlns:xlink="http://www.w3.org/1999/xlink" x="0px" y="0px"
	 viewBox="0 0 800 800" style="enable-background:new 0 0 800 800;" xml:space="preserve">
<style type="text/css">
	.st0{clip-path:url(#SVGID_2_);fill:#00A46B;}
	.st1{clip-path:url(#SVGID_2_);fill:#FFFFFF;}
	
		.st2{clip-path:url(#SVGID_2_);fill:none;stroke:#FFFFFF;stroke-width:23.3333;stroke-linecap:round;stroke-linejoin:round;stroke-miterlimit:2;}
</style>
<g>
	<defs>
		<path id="SVGID_1_" d="M700,800H100C44.8,800,0,755.2,0,700V100C0,44.8,44.8,0,100,0h600c55.2,0,100,44.8,100,100v600
			C800,755.2,755.2,800,700,800z"/>
	</defs>
	<clipPath id="SVGID_2_">
		<use xlink:href="#SVGID_1_"  style="overflow:visible;"/>
	</clipPath>
	<path class="st0" d="M700,800H100C44.8,800,0,755.2,0,700V100C0,44.8,44.8,0,100,0h600c55.2,0,100,44.8,100,100v600
		C800,755.2,755.2,800,700,800z"/>
	<path class="st1" d="M107.9,801.4c109-142.2,155.4-280.2,137.9-410.3C234,303.8,195.1,235,158.7,187.7
		C186.4,480.1,54.4,706.5-40.9,828.9c9.5-3.4,19-6.5,28.6-9.2C27.8,808,67.9,801.9,107.9,801.4z"/>
	<path class="st1" d="M190.4,144c43.3,52.9,92.4,134,106.7,240.3c18.3,135.5-24.6,276.9-127.5,420.8c34.8,4.6,69.3,13.3,103.6,26.3
		c125.3,47.6,212.3,71,275.7,77.3C605,471.8,303.2,221.3,190.4,144z"/>
	<path class="st2" d="M660.5,304.2c0,31.4-19.6,58.2-47.2,68.9h-26.5h-26.5c-27.6-10.7-47.2-37.5-47.2-68.9
		c0-40.8,33-73.8,73.8-73.8S660.5,263.4,660.5,304.2z"/>
	<path class="st2" d="M613.2,378.9l-3.1,46.9c-0.2,3-2.2,5.3-4.6,5.3h-37.6c-2.4,0-4.4-2.3-4.6-5.3l-3.1-46.9"/>
	<line class="st2" x1="586.7" y1="144" x2="586.7" y2="182.5"/>
	<line class="st2" x1="475.1" y1="190.2" x2="502.3" y2="217.4"/>
	<line class="st2" x1="428.9" y1="301.7" x2="467.4" y2="301.7"/>
	<line class="st2" x1="744.4" y1="301.7" x2="705.9" y2="301.7"/>
	<line class="st2" x1="698.2" y1="190.2" x2="671" y2="217.4"/>
</g>
</svg>
